<svg width="160" height="27" viewBox="0 0 160 27" fill="none" xmlns="http://www.w3.org/2000/svg">
<path d="M5.2207 26H0.439453L11.1094 0.863281H16.1191L27.0176 26H22.0078L19.1426 19.1445H10.793L12.3926 15.1016H17.4551L13.5 5.66211L5.2207 26ZM29.6543 26V7.54297H33.2578L33.8379 10.25C35.6074 8.44531 37.623 7.54297 39.8848 7.54297C44.2559 7.54297 46.4414 9.81641 46.4414 14.3633V26H41.7832V14.3633C41.7832 12.3242 40.7695 11.3047 38.7422 11.3047C37.2305 11.3047 35.7539 11.9082 34.3125 13.1152V26H29.6543ZM49.9746 20.252C49.9746 16.584 52.6465 14.75 57.9902 14.75C59.2441 14.75 60.498 14.8672 61.752 15.1016V13.7129C61.752 12.0605 60.5625 11.2344 58.1836 11.2344C56.168 11.2344 53.9297 11.5273 51.4688 12.1133V8.42188C53.9297 7.83594 56.168 7.54297 58.1836 7.54297C63.668 7.54297 66.4102 9.57031 66.4102 13.625V26H63.7031L62.0508 24.3477C60.4453 25.4492 58.6758 26 56.7422 26C52.2305 26 49.9746 24.084 49.9746 20.252ZM61.752 18.2656C60.5801 18.0312 59.3262 17.9141 57.9902 17.9141C55.752 17.9141 54.6328 18.6758 54.6328 20.1992C54.6328 21.8398 55.5703 22.6602 57.4453 22.6602C58.9922 22.6602 60.4277 22.1797 61.752 21.2188V18.2656ZM70.5586 4.55469H74.0039L74.707 7.54297H79.3477V11.2344H75.2168V19.7246C75.2168 21.4473 75.9609 22.3086 77.4492 22.3086H79.3477V26H75.1992C72.1055 26 70.5586 24.3418 70.5586 21.0254V4.55469ZM86.3086 16.7012C86.3086 20.5566 87.8027 22.4844 90.791 22.4844C93.7793 22.4844 95.2734 20.5566 95.2734 16.7012C95.2734 12.9395 93.7793 11.0586 90.791 11.0586C87.8027 11.0586 86.3086 12.9395 86.3086 16.7012ZM81.6504 16.7715C81.6504 10.584 84.6973 7.49023 90.791 7.49023C96.8848 7.49023 99.9316 10.584 99.9316 16.7715C99.9316 22.9473 96.8848 26.0352 90.791 26.0352C84.7207 26.0352 81.6738 22.9473 81.6504 16.7715ZM107.666 21.6934V26H103.008V21.6934H107.666ZM111.639 26V7.54297H115.242L115.787 10.2148C117.439 8.43359 119.426 7.54297 121.746 7.54297C124.066 7.54297 125.654 8.38672 126.51 10.0742C128.396 8.38672 130.371 7.54297 132.434 7.54297C136.676 7.54297 138.797 9.88086 138.797 14.5566V26H134.139V14.3809C134.139 12.3301 133.213 11.3047 131.361 11.3047C129.979 11.3047 128.648 11.9258 127.371 13.168V26H122.713V14.4336C122.713 12.3477 121.857 11.3047 120.146 11.3047C118.787 11.3047 117.504 11.9258 116.297 13.168V26H111.639ZM150.996 7.54297C156.598 7.54297 159.398 10.4023 159.398 16.1211C159.398 16.8828 159.346 17.6445 159.24 18.4062H146.988C146.988 21.0078 148.898 22.3086 152.719 22.3086C154.582 22.3086 156.445 22.1328 158.309 21.7812V25.4727C156.68 25.8242 154.699 26 152.367 26C145.676 26 142.33 22.8535 142.33 16.5605C142.33 10.5488 145.219 7.54297 150.996 7.54297ZM146.988 15.1719H154.863V15.0312C154.863 12.4766 153.574 11.1992 150.996 11.1992C148.535 11.1992 147.199 12.5234 146.988 15.1719Z" fill="#343434"/>
</svg>
